<mxfile host="Electron" agent="Mozilla/5.0 (Windows NT 10.0; Win64; x64) AppleWebKit/537.36 (KHTML, like Gecko) draw.io/21.6.1 Chrome/112.0.5615.204 Electron/24.6.1 Safari/537.36" modified="2024-12-23T03:36:48.584Z" etag="ccI4JQ5WHvysNZFh1nBw" version="21.6.1" type="device">
  <diagram name="Page-1" id="0hPpukkpPiE7rynPeDui">
    <mxGraphModel dx="1418" dy="820" grid="1" gridSize="10" guides="1" tooltips="1" connect="1" arrows="1" fold="1" page="1" pageScale="1" pageWidth="850" pageHeight="1100" math="0" shadow="0">
      <root>
        <mxCell id="0" />
        <mxCell id="1" parent="0" />
        <mxCell id="Nc9upNwZt-z7wAtekqiK-1" value="Payment" style="shape=umlFrame;whiteSpace=wrap;html=1;pointerEvents=0;width=95;height=60;" parent="1" vertex="1">
          <mxGeometry x="45" y="40" width="760" height="420" as="geometry" />
        </mxCell>
        <mxCell id="Nc9upNwZt-z7wAtekqiK-2" value="" style="ellipse;html=1;shape=startState;fillColor=#000000;strokeColor=#ff0000;" parent="1" vertex="1">
          <mxGeometry x="150" y="60" width="30" height="30" as="geometry" />
        </mxCell>
        <mxCell id="Nc9upNwZt-z7wAtekqiK-3" value="" style="edgeStyle=orthogonalEdgeStyle;html=1;verticalAlign=bottom;endArrow=open;endSize=8;strokeColor=#ff0000;rounded=0;" parent="1" source="Nc9upNwZt-z7wAtekqiK-2" edge="1">
          <mxGeometry relative="1" as="geometry">
            <mxPoint x="165" y="150" as="targetPoint" />
          </mxGeometry>
        </mxCell>
        <mxCell id="Nc9upNwZt-z7wAtekqiK-4" value="Request" style="rounded=1;whiteSpace=wrap;html=1;arcSize=40;fontColor=#000000;fillColor=#ffffc0;strokeColor=#ff0000;" parent="1" vertex="1">
          <mxGeometry x="105" y="150" width="120" height="40" as="geometry" />
        </mxCell>
        <mxCell id="Nc9upNwZt-z7wAtekqiK-5" value="" style="edgeStyle=orthogonalEdgeStyle;html=1;verticalAlign=bottom;endArrow=open;endSize=8;strokeColor=#ff0000;rounded=0;entryX=0.5;entryY=0;entryDx=0;entryDy=0;" parent="1" source="Nc9upNwZt-z7wAtekqiK-4" target="Nc9upNwZt-z7wAtekqiK-6" edge="1">
          <mxGeometry relative="1" as="geometry">
            <mxPoint x="165" y="250" as="targetPoint" />
          </mxGeometry>
        </mxCell>
        <mxCell id="Nc9upNwZt-z7wAtekqiK-6" value="Cancelled" style="rounded=1;whiteSpace=wrap;html=1;arcSize=40;fontColor=#000000;fillColor=#ffffc0;strokeColor=#ff0000;" parent="1" vertex="1">
          <mxGeometry x="105" y="290" width="120" height="40" as="geometry" />
        </mxCell>
        <mxCell id="Nc9upNwZt-z7wAtekqiK-8" value="Accepted" style="rounded=1;whiteSpace=wrap;html=1;arcSize=40;fontColor=#000000;fillColor=#ffffc0;strokeColor=#ff0000;" parent="1" vertex="1">
          <mxGeometry x="370" y="150" width="120" height="40" as="geometry" />
        </mxCell>
        <mxCell id="Nc9upNwZt-z7wAtekqiK-10" value="" style="edgeStyle=orthogonalEdgeStyle;html=1;verticalAlign=bottom;endArrow=open;endSize=8;strokeColor=#ff0000;rounded=0;entryX=0;entryY=0.5;entryDx=0;entryDy=0;" parent="1" source="Nc9upNwZt-z7wAtekqiK-4" target="Nc9upNwZt-z7wAtekqiK-8" edge="1">
          <mxGeometry relative="1" as="geometry">
            <mxPoint x="430" y="250" as="targetPoint" />
            <mxPoint x="430" y="190" as="sourcePoint" />
            <Array as="points" />
          </mxGeometry>
        </mxCell>
        <mxCell id="Nc9upNwZt-z7wAtekqiK-11" value="" style="edgeStyle=orthogonalEdgeStyle;html=1;verticalAlign=bottom;endArrow=open;endSize=8;strokeColor=#ff0000;rounded=0;exitX=0.34;exitY=1.02;exitDx=0;exitDy=0;exitPerimeter=0;entryX=0.822;entryY=0.04;entryDx=0;entryDy=0;entryPerimeter=0;" parent="1" source="Nc9upNwZt-z7wAtekqiK-8" target="Nc9upNwZt-z7wAtekqiK-6" edge="1">
          <mxGeometry relative="1" as="geometry">
            <mxPoint x="440" y="260" as="targetPoint" />
            <mxPoint x="440" y="200" as="sourcePoint" />
          </mxGeometry>
        </mxCell>
        <mxCell id="Nc9upNwZt-z7wAtekqiK-12" value="Inprogress" style="rounded=1;whiteSpace=wrap;html=1;arcSize=40;fontColor=#000000;fillColor=#ffffc0;strokeColor=#ff0000;" parent="1" vertex="1">
          <mxGeometry x="550" y="210" width="120" height="40" as="geometry" />
        </mxCell>
        <mxCell id="Nc9upNwZt-z7wAtekqiK-13" value="" style="edgeStyle=orthogonalEdgeStyle;html=1;verticalAlign=bottom;endArrow=open;endSize=8;strokeColor=#ff0000;rounded=0;entryX=0.5;entryY=0;entryDx=0;entryDy=0;" parent="1" source="Nc9upNwZt-z7wAtekqiK-12" target="Nc9upNwZt-z7wAtekqiK-14" edge="1">
          <mxGeometry relative="1" as="geometry">
            <mxPoint x="610" y="310" as="targetPoint" />
          </mxGeometry>
        </mxCell>
        <mxCell id="Nc9upNwZt-z7wAtekqiK-14" value="Completed" style="rounded=1;whiteSpace=wrap;html=1;arcSize=40;fontColor=#000000;fillColor=#ffffc0;strokeColor=#ff0000;" parent="1" vertex="1">
          <mxGeometry x="550" y="330" width="120" height="40" as="geometry" />
        </mxCell>
        <mxCell id="Nc9upNwZt-z7wAtekqiK-16" value="" style="edgeStyle=orthogonalEdgeStyle;html=1;verticalAlign=bottom;endArrow=open;endSize=8;strokeColor=#ff0000;rounded=0;exitX=1;exitY=0.5;exitDx=0;exitDy=0;entryX=0.5;entryY=0;entryDx=0;entryDy=0;" parent="1" source="Nc9upNwZt-z7wAtekqiK-8" target="Nc9upNwZt-z7wAtekqiK-12" edge="1">
          <mxGeometry relative="1" as="geometry">
            <mxPoint x="450" y="270" as="targetPoint" />
            <mxPoint x="450" y="210" as="sourcePoint" />
          </mxGeometry>
        </mxCell>
        <mxCell id="Nc9upNwZt-z7wAtekqiK-17" value="Accept payment&lt;div&gt;Request&lt;/div&gt;" style="text;html=1;align=center;verticalAlign=middle;resizable=0;points=[];autosize=1;strokeColor=none;fillColor=none;" parent="1" vertex="1">
          <mxGeometry x="240" y="133" width="110" height="40" as="geometry" />
        </mxCell>
        <mxCell id="Nc9upNwZt-z7wAtekqiK-18" value="Appilicant&lt;div&gt;are cancel&lt;/div&gt;&lt;div&gt;payment&lt;/div&gt;" style="text;html=1;align=center;verticalAlign=middle;resizable=0;points=[];autosize=1;strokeColor=none;fillColor=none;" parent="1" vertex="1">
          <mxGeometry x="90" y="205" width="80" height="60" as="geometry" />
        </mxCell>
        <mxCell id="Nc9upNwZt-z7wAtekqiK-19" value="Start payment" style="text;html=1;align=center;verticalAlign=middle;resizable=0;points=[];autosize=1;strokeColor=none;fillColor=none;" parent="1" vertex="1">
          <mxGeometry x="490" y="128" width="100" height="30" as="geometry" />
        </mxCell>
        <mxCell id="Nc9upNwZt-z7wAtekqiK-20" value="Sucessfully" style="text;html=1;align=center;verticalAlign=middle;resizable=0;points=[];autosize=1;strokeColor=none;fillColor=none;" parent="1" vertex="1">
          <mxGeometry x="610" y="280" width="80" height="30" as="geometry" />
        </mxCell>
        <mxCell id="O3bMMjASFM85iG-IovIn-8" value="" style="edgeStyle=orthogonalEdgeStyle;html=1;verticalAlign=bottom;endArrow=open;endSize=8;strokeColor=#ff0000;rounded=0;entryX=0.5;entryY=0;entryDx=0;entryDy=0;" edge="1" parent="1">
          <mxGeometry relative="1" as="geometry">
            <mxPoint x="610" y="330" as="targetPoint" />
            <mxPoint x="610" y="250" as="sourcePoint" />
            <Array as="points">
              <mxPoint x="610" y="300" />
              <mxPoint x="610" y="300" />
            </Array>
          </mxGeometry>
        </mxCell>
        <mxCell id="O3bMMjASFM85iG-IovIn-10" value="" style="ellipse;html=1;shape=endState;fillColor=#000000;strokeColor=#ff0000;" vertex="1" parent="1">
          <mxGeometry x="150" y="400" width="30" height="30" as="geometry" />
        </mxCell>
        <mxCell id="O3bMMjASFM85iG-IovIn-11" value="" style="edgeStyle=orthogonalEdgeStyle;html=1;verticalAlign=bottom;endArrow=open;endSize=8;strokeColor=#ff0000;rounded=0;exitX=0.5;exitY=1;exitDx=0;exitDy=0;entryX=0.5;entryY=0;entryDx=0;entryDy=0;" edge="1" parent="1" source="Nc9upNwZt-z7wAtekqiK-6" target="O3bMMjASFM85iG-IovIn-10">
          <mxGeometry relative="1" as="geometry">
            <mxPoint x="214" y="302" as="targetPoint" />
            <mxPoint x="421" y="201" as="sourcePoint" />
            <Array as="points" />
          </mxGeometry>
        </mxCell>
        <mxCell id="O3bMMjASFM85iG-IovIn-12" value="" style="edgeStyle=orthogonalEdgeStyle;html=1;verticalAlign=bottom;endArrow=open;endSize=8;strokeColor=#ff0000;rounded=0;exitX=0.5;exitY=1;exitDx=0;exitDy=0;entryX=1;entryY=0.5;entryDx=0;entryDy=0;" edge="1" parent="1" source="Nc9upNwZt-z7wAtekqiK-14" target="O3bMMjASFM85iG-IovIn-10">
          <mxGeometry relative="1" as="geometry">
            <mxPoint x="224" y="312" as="targetPoint" />
            <mxPoint x="431" y="211" as="sourcePoint" />
          </mxGeometry>
        </mxCell>
      </root>
    </mxGraphModel>
  </diagram>
</mxfile>
